# xmcd CD database file generated by Grip 3.0.3
# 
# Track frame offsets:
#       150
#       12217
#       22280
#       36374
#       50062
#       61728
#       76460
#       103407
#       112676
#       124637
#       134630
# 
# Disc length: 1937 seconds
# 
# Revision: 3
# Processed by: cddbd v1.4PL0 Copyright (c) Steve Scherf et al.
# Submitted via: Grip 3.0.3
# 
DISCID=97078f0b
DTITLE=Jackstraw - The Farrington Session
DYEAR=1900
DGENRE=Bluegrass
TTITLE0=Train 45
TTITLE1=Corn and Beans
TTITLE2=Black Mountain Rag
TTITLE3=Hidden Meadows
TTITLE4=Spring on the Hill
TTITLE5=Burnside Breakdown
TTITLE6=Ghost Woman Blues
TTITLE7=Tennesse Blues
TTITLE8=Hurricane Floyd
TTITLE9=Fire on the Mountain
TTITLE10=White House Blues
EXTD=
EXTT0=
EXTT1=
EXTT2=
EXTT3=
EXTT4=
EXTT5=
EXTT6=
EXTT7=
EXTT8=
EXTT9=
EXTT10=
PLAYORDER=
